{"title":"Tickled 2016 DOCU WEB-DL XviD MP3-FGT [CoolSceneHD]","uid":15948178,"size":1233673484,"categoryP":"video","categoryS":"movies","magnet":"?xt=urn:btih:78d1edd4ca11ec6d56334959f0e5d73193370139&amp;dn=Tickled+2016+DOCU+WEB-DL+XviD+MP3-FGT+%5BCoolSceneHD%5D&amp;tr=udp%3A%2F%2Ftracker.leechers-paradise.org%3A6969&amp;tr=udp%3A%2F%2Fzer0day.ch%3A1337&amp;tr=udp%3A%2F%2Fopen.demonii.com%3A1337&amp;tr=udp%3A%2F%2Ftracker.coppersurfer.tk%3A6969&amp;tr=udp%3A%2F%2Fexodus.desync.com%3A6969","seeders":2,"leechers":11,"uploader":"CoolSceneHD","files":1,"time":1475537001,"description":"Plot:\tJournalist David Farrier stumbles upon a mysterious tickling competition online. As he delves deeper he comes up against fierce resistance| but that doesn't stop him getting to the bottom of a story stranger than fiction.\r\n\r\nVideo\r\nID                                       : 0\r\nFormat                                   : MPEG-4 Visual\r\nFormat profile                           :   \r\nFormat settings, BVOP                    : No\r\nFormat settings, QPel                    : No\r\nFormat settings, GMC                     : No warppoints\r\nFormat settings, Matrix                  : Default (H.263)\r\nCodec ID                                 : XVID\r\nCodec ID/Hint                            : XviD\r\nDuration                                 : 1h 31mn\r\nBit rate                                 : 1 590 Kbps\r\nWidth                                    : 720 pixels\r\nHeight                                   : 384 pixels\r\nDisplay aspect ratio                     : 1.85:1\r\nFrame rate                               : 23.976 fps\r\nColor space                              : YUV\r\nChroma subsampling                       : 4:2:0\r\nBit depth                                : 8 bits\r\nScan type                                : Progressive\r\nCompression mode                         : Lossy\r\nBits/(Pixel*Frame)                       : 0.240\r\nStream size                              : 1.02 GiB (89%)\r\nWriting library                          : Lavc57.16.101\r\n\r\nAudio\r\nID                                       : 1\r\nFormat                                   : MPEG Audio\r\nFormat version                           : Version 1\r\nFormat profile                           : Layer 3\r\nMode                                     : Joint stereo\r\nMode extension                           : MS Stereo\r\nCodec ID                                 : 55\r\nCodec ID/Hint                            : MP3\r\nDuration                                 : 1h 31mn\r\nBit rate mode                            : Constant\r\nBit rate                                 : 192 Kbps\r\nChannel(s)                               : 2 channels\r\nSampling rate                            : 48.0 KHz\r\nCompression mode                         : Lossy\r\nStream size                              : 126 MiB (11%)\r\nAlignment                                : Aligned on interleaves\r\nInterleave, duration                     : 24 ms (0.58 video frame)\r\nInterleave, preload duration             : 504 ms\r\nWriting library                          : LAME3.99.5","torrent":{"xt":"urn:btih:78d1edd4ca11ec6d56334959f0e5d73193370139","amp;dn":"Tickled+2016+DOCU+WEB-DL+XviD+MP3-FGT+%5BCoolSceneHD%5D","amp;tr":["udp%3A%2F%2Ftracker.leechers-paradise.org%3A6969","udp%3A%2F%2Fzer0day.ch%3A1337","udp%3A%2F%2Fopen.demonii.com%3A1337","udp%3A%2F%2Ftracker.coppersurfer.tk%3A6969","udp%3A%2F%2Fexodus.desync.com%3A6969"],"infoHash":"78d1edd4ca11ec6d56334959f0e5d73193370139","infoHashBuffer":{"type":"Buffer","data":[120,209,237,212,202,17,236,109,86,51,73,89,240,229,215,49,147,55,1,57]},"announce":[],"urlList":[]}}